<?xml version="1.0" encoding="utf-8"?>
<!-- Generator: Adobe Illustrator 16.0.0, SVG Export Plug-In . SVG Version: 6.00 Build 0)  -->
<!DOCTYPE svg PUBLIC "-//W3C//DTD SVG 1.1//EN" "http://www.w3.org/Graphics/SVG/1.1/DTD/svg11.dtd">
<svg version="1.1" id="Layer_1" xmlns="http://www.w3.org/2000/svg" xmlns:xlink="http://www.w3.org/1999/xlink" x="0px" y="0px"
	 width="177px" height="62.667px" viewBox="0 0 177 62.667" enable-background="new 0 0 177 62.667" xml:space="preserve">
<path fill="#FFFFFF" d="M36.092,10.845c3.338,1.095,6.028,3.102,8.103,6.024c1.658,2.364,2.784,4.921,3.382,7.67
	c0.6,2.751,0.899,5.382,0.899,7.863c0,6.317-1.271,11.672-3.795,16.05c-3.447,5.916-8.755,8.869-15.938,8.869H8.26V9.812h20.483
	C31.68,9.865,34.135,10.196,36.092,10.845 M17.893,18.063v31.011h9.171c4.697,0,7.97-2.318,9.813-6.936
	c1.01-2.53,1.523-5.553,1.523-9.06c0-4.827-0.762-8.541-2.282-11.136c-1.517-2.582-4.541-3.88-9.054-3.88H17.893z"/>
<path fill="#FFFFFF" d="M123.152,37.75c-2.772,2.321-6.743,3.477-11.909,3.477h-9.888v17.091h-9.862V10.807h20.401
	c4.696,0,8.442,1.224,11.248,3.674c2.782,2.454,4.187,6.233,4.187,11.378C127.329,31.464,125.948,35.434,123.152,37.75
	 M115.581,20.628c-1.252-1.054-3.024-1.576-5.274-1.576h-8.951v13.993h8.951c2.25,0,4.022-0.573,5.274-1.712
	c1.252-1.136,1.883-2.95,1.883-5.418C117.463,23.448,116.833,21.688,115.581,20.628"/>
<path fill="#FFFFFF" d="M136.501,16.255c3.715-3.788,8.435-5.683,14.177-5.683c7.665,0,13.287,2.539,16.836,7.634
	c1.945,2.851,3.01,5.723,3.152,8.602h-9.628c-0.621-2.214-1.417-3.886-2.372-5.01c-1.718-2.006-4.254-3-7.627-3
	c-3.434,0-6.137,1.41-8.121,4.235c-1.979,2.829-2.966,6.825-2.966,11.996c0,5.179,1.047,9.047,3.126,11.621
	c2.092,2.582,4.752,3.867,7.979,3.867c3.297,0,5.82-1.11,7.551-3.315c0.961-1.19,1.759-2.972,2.401-5.358h9.56
	c-0.816,5.024-2.93,9.119-6.328,12.277c-3.393,3.141-7.74,4.717-13.049,4.717c-6.557,0-11.717-2.131-15.469-6.386
	c-3.746-4.267-5.632-10.142-5.632-17.571C130.091,26.827,132.231,20.615,136.501,16.255"/>
<path fill="#FFFFFF" d="M78.232,20.643c2.624,1.183,4.795,3.041,6.514,5.575c1.543,2.24,2.54,4.842,2.998,7.793
	c0.268,1.729,0.373,4.218,0.329,7.478H60.625c0.165,3.773,1.47,6.428,3.946,7.946c1.499,0.944,3.312,1.422,5.424,1.422
	c2.25,0,4.07-0.584,5.487-1.735c0.752-0.621,1.427-1.486,2.014-2.588h10.058c-0.268,2.237-1.49,4.5-3.657,6.805
	c-3.37,3.662-8.092,5.5-14.17,5.5c-5.006,0-9.431-1.545-13.268-4.631c-3.832-3.098-5.749-8.121-5.749-15.09
	c0-6.524,1.733-11.522,5.195-15.007c3.458-3.49,7.945-5.228,13.464-5.228C72.651,18.883,75.605,19.471,78.232,20.643 M63.501,29.153
	c-1.402,1.438-2.275,3.382-2.624,5.836h16.968c-0.189-2.618-1.059-4.596-2.634-5.957c-1.557-1.356-3.508-2.029-5.842-2.029
	C66.853,27.003,64.896,27.725,63.501,29.153"/>
</svg>
