<svg width="386" height="88" viewBox="0 0 386 88" fill="none" xmlns="http://www.w3.org/2000/svg">
    <g clip-path="url(#clip0_1_673)">
    <path fill-rule="evenodd" clip-rule="evenodd" d="M291.207 8.43945C271.091 8.67477 258.043 21.7741 258.043 42.9065V78.1763H276.086V42.542C276.086 31.9573 280.884 25.2024 291.362 25.2024H303.721V8.46255L291.207 8.43945Z" fill="black"/>
    <path fill-rule="evenodd" clip-rule="evenodd" d="M217.419 24.8329C226.331 25.1097 231.116 28.9855 232.942 36.1696H201.49C203.508 29.4792 209.37 24.8329 217.419 24.8329ZM216.556 8.08385C199.664 8.08385 182.712 23.4395 182.712 43.649C182.712 50.5431 184.694 57.2887 188.417 63.0655C192.14 68.8422 197.444 73.401 203.683 76.1874C209.923 78.9737 216.829 79.8675 223.562 78.76C230.295 77.6525 236.564 74.5914 241.607 69.9492L229.947 58.0034C226.59 60.8892 222.324 62.4697 217.917 62.4606C210.265 62.4606 202.951 57.4497 201.522 51.133H249.592C253.5 28.7641 241.776 8.06543 216.547 8.06543L216.556 8.08385Z" fill="black"/>
    <path d="M342.838 62.4798C332.557 62.4798 324.905 54.0546 324.905 43.6591C324.905 33.2636 332.557 24.8384 342.838 24.8384C353.12 24.8384 360.771 33.2636 360.771 43.6591C360.771 54.0546 353.124 62.4798 342.838 62.4798ZM382.631 63.5964C379.713 60.5421 378.087 56.4592 378.098 52.2135V8.8414H360.826V13.0679C355.246 9.71678 348.857 7.99036 342.367 8.07945C335.876 8.16855 329.537 10.0697 324.049 13.5727C318.56 17.0758 314.138 22.0443 311.269 27.9291C308.4 33.8139 307.198 40.3857 307.794 46.9181C308.39 53.4505 310.762 59.6891 314.647 64.9442C318.533 70.1994 323.78 74.2664 329.81 76.6958C335.839 79.1251 342.416 79.8221 348.813 78.7098C355.211 77.5975 361.179 74.7192 366.058 70.3929C367.252 72.2943 368.628 74.0716 370.167 75.6991L372.728 78.3845L385.179 66.2772L382.622 63.5918L382.631 63.5964Z" fill="black"/>
    <path fill-rule="evenodd" clip-rule="evenodd" d="M140.226 8.08691C135.603 8.08691 131.026 9.00713 126.756 10.795C122.486 12.5828 118.605 15.2033 115.337 18.5067C112.069 21.8102 109.477 25.7319 107.708 30.048C105.94 34.364 105.03 38.9899 105.03 43.6613V78.1791H122.986V43.6613C122.986 33.2659 129.944 24.836 140.226 24.836C150.507 24.836 157.47 33.2659 157.47 43.6613V78.1791H175.426V43.6613C175.426 38.9896 174.515 34.3636 172.746 30.0476C170.977 25.7315 168.384 21.8098 165.116 18.5064C161.847 15.2031 157.967 12.5826 153.696 10.7949C149.426 9.00708 144.848 8.08691 140.226 8.08691Z" fill="black"/>
    <path fill-rule="evenodd" clip-rule="evenodd" d="M50.1486 36.9587H19.4547V18.7885H68.1275V67.979H50.1486V36.9587ZM23.7006 0.466065C20.6493 0.465459 17.6278 1.0724 14.8087 2.25221C11.9896 3.43202 9.42807 5.16162 7.27049 7.34215C5.11291 9.52267 3.40154 12.1114 2.23414 14.9605C1.06675 17.8096 0.466198 20.8633 0.466797 23.947V87.9856H63.8268C69.99 87.9856 75.9008 85.5112 80.2588 81.1068C84.6169 76.7024 87.0652 70.7287 87.0652 64.5V0.466065H23.7006Z" fill="#19E572"/>
    </g>
    <defs>
    <clipPath id="clip0_1_673">
    <rect width="384.721" height="87.5194" fill="white" transform="translate(0.466797 0.466309)"/>
    </clipPath>
    </defs>
</svg>
    